<svg xmlns="http://www.w3.org/2000/svg" width="32.281" height="32.51" viewBox="0 0 32.281 32.51">
  <g id="Component_1_38" data-name="Component 1 – 38" transform="translate(0.125 0.246)">
    <g id="Group_8" data-name="Group 8" transform="translate(0 0)">
      <path id="Path_19" data-name="Path 19" d="M66.426,83.363l4.164-4.092a1.267,1.267,0,0,0,.478-1.031,1.169,1.169,0,0,0-.456-.914,1.358,1.358,0,0,0-1.863.027l-4.2,4.119L60.18,77.308a1.406,1.406,0,0,0-1.886.045,1.357,1.357,0,0,0-.4.986,1.168,1.168,0,0,0,.437.9L62.69,83.39l-4.428,4.592a1.394,1.394,0,0,0-.4.99,1.119,1.119,0,0,0,.428.887,1.418,1.418,0,0,0,.929.387,1.29,1.29,0,0,0,.979-.432l4.369-4.561L68.745,89.9a1.42,1.42,0,0,0,.934.387,1.249,1.249,0,0,0,.961-.419,1.393,1.393,0,0,0,.392-.995,1.107,1.107,0,0,0-.4-.855Z" transform="translate(-48.563 -67.63)" fill="#fff" stroke="#1a1818" stroke-miterlimit="10" stroke-width="0.25"/>
      <path id="Path_20" data-name="Path 20" d="M86.675,84.554a15.473,15.473,0,0,0-3.285-5.092A15.173,15.173,0,0,0,78.315,76.1a18.01,18.01,0,0,0-12.956,0,15.1,15.1,0,0,0-5.07,3.368A15.355,15.355,0,0,0,57,84.554a17.035,17.035,0,0,0-1.18,6.406A17.269,17.269,0,0,0,57,97.385a15.42,15.42,0,0,0,3.289,5.11,14.905,14.905,0,0,0,5.08,3.354,18.277,18.277,0,0,0,12.943,0,14.85,14.85,0,0,0,5.08-3.358,15.35,15.35,0,0,0,3.285-5.1,17.221,17.221,0,0,0,1.18-6.429A17.035,17.035,0,0,0,86.675,84.554Zm-3.481,6.406a13.411,13.411,0,0,1-.8,4.66,10.9,10.9,0,0,1-2.269,3.7,10.538,10.538,0,0,1-3.553,2.454,13,13,0,0,1-9.462,0,10.493,10.493,0,0,1-3.553-2.454,10.9,10.9,0,0,1-2.269-3.7,13.94,13.94,0,0,1,0-9.319A10.959,10.959,0,0,1,63.555,82.6a10.434,10.434,0,0,1,3.553-2.445,12.88,12.88,0,0,1,9.462,0A10.434,10.434,0,0,1,80.124,82.6,10.958,10.958,0,0,1,82.393,86.3,13.411,13.411,0,0,1,83.195,90.961Z" transform="translate(-55.824 -74.894)" fill="#fff" stroke="#1a1818" stroke-miterlimit="10" stroke-width="0.25"/>
    </g>
  </g>
</svg>
