<svg xmlns="http://www.w3.org/2000/svg" width="67" height="67" viewBox="0 0 67 67">
  <g id="Group_28" data-name="Group 28" transform="translate(-272 -1805)">
    <rect id="Rectangle_28" data-name="Rectangle 28" width="67" height="67" transform="translate(272 1805)"/>
    <path id="Path_26" data-name="Path 26" d="M68.854,47.2H64.088a4.54,4.54,0,0,0-1.27-2.527L48.99,30.85a1.364,1.364,0,0,0-.966-.4H39.99c-.779,0-1.262.711-1.8,1.178a12.916,12.916,0,0,1-1.942,1.414,8.137,8.137,0,0,1-3.138,1.115,5.115,5.115,0,0,1-1.755-.075c-1.377-.325-2.353-1.509-1.152-2.708l6.454-6.454a2.369,2.369,0,0,1,1.926-.684H51.463c.755,0,1.549.79,2.077,1.243.84.721,1.627,1.5,2.445,2.25,1.5,1.365,3.3,2.913,5.444,2.913h7.426a1.366,1.366,0,0,0,0-2.731H61.429a3.941,3.941,0,0,1-2.176-1,30.826,30.826,0,0,1-2.577-2.275c-1.4-1.319-3.132-3.134-5.214-3.134H29.181c-2.081,0-3.81,1.815-5.214,3.135-.774.727-1.541,1.469-2.379,2.123a4.246,4.246,0,0,1-2.373,1.149H11.789a1.366,1.366,0,0,0,0,2.731h7.426c2.143,0,3.949-1.549,5.444-2.913.819-.746,1.6-1.529,2.445-2.25.528-.454,1.321-1.243,2.077-1.243h4.3l-5.208,5.208A4.16,4.16,0,0,0,27.2,34.05a5.11,5.11,0,0,0,3.74,2.737c3.55.736,7.1-1.251,9.6-3.605h6.916L60.887,46.61a1.845,1.845,0,0,1-2.6,2.612L49.63,40.568A1.366,1.366,0,0,0,47.7,42.5l9.845,9.845a1.845,1.845,0,0,1-2.6,2.612l-9.85-9.849a1.366,1.366,0,0,0-1.931,1.931L51.622,55.5a1.859,1.859,0,0,1-1.3,3.152,1.828,1.828,0,0,1-1.3-.541h0l-8.465-8.466a1.366,1.366,0,0,0-1.931,1.931l7.09,7.09a1.845,1.845,0,0,1-2.612,2.6l-.927-.925a4.584,4.584,0,0,0-3.622-6.656A4.551,4.551,0,0,0,34.9,48.81a4.587,4.587,0,0,0-4.221-5.592,4.586,4.586,0,0,0-7.775-3.437l-4.9,4.9a4.543,4.543,0,0,0-1.27,2.527H11.788a1.366,1.366,0,0,0,0,2.73h5.376a4.54,4.54,0,0,0,3.646,2.533,4.571,4.571,0,0,0,5.165,4.941,4.607,4.607,0,0,0,6.04,3.714A4.56,4.56,0,0,0,39.661,63.2l.754-.754.754.754a4.6,4.6,0,0,0,7.643-2.078,4.609,4.609,0,0,0,5.936-3.165,4.581,4.581,0,0,0,5.86-5.6,4.5,4.5,0,0,0,3.058-2.423h5.189A1.366,1.366,0,0,0,68.854,47.2ZM19.942,49.218a1.848,1.848,0,0,1,0-2.609l4.9-4.9a1.845,1.845,0,0,1,2.608,2.608l-4.9,4.9a1.889,1.889,0,0,1-2.6,0Zm4.1,4.983a1.846,1.846,0,0,1,0-2.609l5.121-5.119a1.845,1.845,0,0,1,2.608,2.608L26.645,54.2a1.846,1.846,0,0,1-2.608,0Zm7.772,3.911a1.832,1.832,0,0,1-1.3.541h0a1.859,1.859,0,0,1-1.3-3.147l3.518-3.519a1.845,1.845,0,0,1,2.607,2.608S31.812,58.109,31.81,58.111Zm5.919,3.16a1.845,1.845,0,0,1-2.617-2.6l1.735-1.733a1.843,1.843,0,1,1,2.6,2.609Z" transform="translate(264.865 1795.531)" fill="#fff"/>
  </g>
</svg>
