<svg xmlns="http://www.w3.org/2000/svg" width="67" height="67" viewBox="0 0 67 67">
  <g id="Group_29" data-name="Group 29" transform="translate(-712 -1805)">
    <g id="Rectangle_29" data-name="Rectangle 29" transform="translate(712 1805)" stroke="#707070" stroke-width="1">
      <rect width="67" height="67" stroke="none"/>
      <rect x="0.5" y="0.5" width="66" height="66" fill="none"/>
    </g>
    <g id="Group_19" data-name="Group 19" transform="translate(721.457 1811)">
      <path id="Path_35" data-name="Path 35" d="M37.3,1H10.1A5.106,5.106,0,0,0,5,6.1V46.9A5.106,5.106,0,0,0,10.1,52H37.3a5.106,5.106,0,0,0,5.1-5.1V6.1A5.106,5.106,0,0,0,37.3,1ZM39,46.9a1.7,1.7,0,0,1-1.7,1.7H10.1a1.7,1.7,0,0,1-1.7-1.7V6.1a1.7,1.7,0,0,1,1.7-1.7H37.3A1.7,1.7,0,0,1,39,6.1ZM33.9,7.8H13.5a1.7,1.7,0,0,0-1.7,1.7v6.8A1.7,1.7,0,0,0,13.5,18H33.9a1.7,1.7,0,0,0,1.7-1.7V9.5A1.7,1.7,0,0,0,33.9,7.8Zm-1.7,6.8h-17V11.2h17ZM16.9,23.1v1.7a1.7,1.7,0,0,1-1.7,1.7H13.5a1.7,1.7,0,0,1-1.7-1.7V23.1a1.7,1.7,0,0,1,1.7-1.7h1.7A1.7,1.7,0,0,1,16.9,23.1Zm18.7,0v1.7a1.7,1.7,0,0,1-1.7,1.7H32.2a1.7,1.7,0,0,1-1.7-1.7V23.1a1.7,1.7,0,0,1,1.7-1.7h1.7A1.7,1.7,0,0,1,35.6,23.1ZM21.15,24.8V23.1a1.7,1.7,0,0,1,1.7-1.7h1.7a1.7,1.7,0,0,1,1.7,1.7v1.7a1.7,1.7,0,0,1-1.7,1.7h-1.7A1.7,1.7,0,0,1,21.15,24.8ZM16.9,31.6v1.7A1.7,1.7,0,0,1,15.2,35H13.5a1.7,1.7,0,0,1-1.7-1.7V31.6a1.7,1.7,0,0,1,1.7-1.7h1.7A1.7,1.7,0,0,1,16.9,31.6Zm18.7,0v1.7A1.7,1.7,0,0,1,33.9,35H32.2a1.7,1.7,0,0,1-1.7-1.7V31.6a1.7,1.7,0,0,1,1.7-1.7h1.7A1.7,1.7,0,0,1,35.6,31.6Zm-14.45,0a1.7,1.7,0,0,1,1.7-1.7h1.7a1.7,1.7,0,0,1,1.7,1.7v1.7a1.7,1.7,0,0,1-1.7,1.7h-1.7a1.7,1.7,0,0,1-1.7-1.7ZM16.9,40.1v1.7a1.7,1.7,0,0,1-1.7,1.7H13.5a1.7,1.7,0,0,1-1.7-1.7V40.1a1.7,1.7,0,0,1,1.7-1.7h1.7A1.7,1.7,0,0,1,16.9,40.1Zm18.7,0v1.7a1.7,1.7,0,0,1-1.7,1.7H22.85a1.7,1.7,0,0,1-1.7-1.7V40.1a1.7,1.7,0,0,1,1.7-1.7H33.9A1.7,1.7,0,0,1,35.6,40.1Z" fill="#fff" stroke="#000" stroke-width="1"/>
    </g>
  </g>
</svg>
