<svg xmlns="http://www.w3.org/2000/svg" width="67" height="67" viewBox="0 0 67 67">
  <g id="Group_32" data-name="Group 32" transform="translate(-272 -1951)">
    <rect id="Rectangle_30" data-name="Rectangle 30" width="67" height="67" transform="translate(272 1951)"/>
    <g id="Group_24" data-name="Group 24" transform="translate(253.852 1799.024)">
      <rect id="Rectangle_18" data-name="Rectangle 18" width="54.952" height="3.744" transform="translate(37.148 212.928) rotate(-90)" fill="#fff"/>
      <rect id="Rectangle_19" data-name="Rectangle 19" width="54.952" height="3.57" transform="translate(57.611 212.928) rotate(-90)" fill="#fff"/>
      <g id="Group_21" data-name="Group 21" transform="translate(44.707 194.271)">
        <g id="Group_20" data-name="Group 20">
          <path id="Path_37" data-name="Path 37" d="M50.583,208.536l1.29-1.28a.406.406,0,0,0,.147-.323.361.361,0,0,0-.141-.286.418.418,0,0,0-.577.007l-1.3,1.29-1.351-1.3a.432.432,0,0,0-.584.013.439.439,0,0,0-.123.31.367.367,0,0,0,.135.281l1.349,1.3-1.372,1.44a.434.434,0,0,0-.123.309.353.353,0,0,0,.133.279.437.437,0,0,0,.288.121.4.4,0,0,0,.3-.135l1.352-1.43,1.292,1.455a.443.443,0,0,0,.289.12.386.386,0,0,0,.3-.13.44.44,0,0,0,.123-.312.349.349,0,0,0-.124-.268Z" transform="translate(-45.054 -203.609)" fill="#fff" stroke="#fff" stroke-miterlimit="10" stroke-width="0.25"/>
          <path id="Path_38" data-name="Path 38" d="M55.442,207.486a4.865,4.865,0,0,0-1.018-1.595,4.638,4.638,0,0,0-1.571-1.053,5.5,5.5,0,0,0-4.009,0,4.634,4.634,0,0,0-1.571,1.055,4.8,4.8,0,0,0-1.017,1.593,5.387,5.387,0,0,0-.365,2.007,5.459,5.459,0,0,0,.364,2.011,4.832,4.832,0,0,0,1.019,1.6,4.607,4.607,0,0,0,1.571,1.049,5.579,5.579,0,0,0,4.007,0,4.617,4.617,0,0,0,1.571-1.051,4.809,4.809,0,0,0,1.018-1.6,5.472,5.472,0,0,0,.364-2.012A5.415,5.415,0,0,0,55.442,207.486Zm-1.079,2.007a4.218,4.218,0,0,1-.248,1.459,3.453,3.453,0,0,1-.7,1.159,3.287,3.287,0,0,1-1.1.768,3.976,3.976,0,0,1-2.927,0,3.273,3.273,0,0,1-1.1-.768,3.433,3.433,0,0,1-.7-1.159,4.42,4.42,0,0,1,0-2.92,3.447,3.447,0,0,1,.7-1.159,3.243,3.243,0,0,1,1.1-.767,3.957,3.957,0,0,1,2.927,0,3.271,3.271,0,0,1,1.1.767,3.467,3.467,0,0,1,.7,1.159A4.22,4.22,0,0,1,54.363,209.493Z" transform="translate(-45.891 -204.46)" fill="#fff" stroke="#fff" stroke-miterlimit="10" stroke-width="0.25"/>
        </g>
      </g>
      <g id="Group_25" data-name="Group 25" transform="translate(66.234 194.271)">
        <g id="Group_20-2" data-name="Group 20">
          <path id="Path_37-2" data-name="Path 37" d="M50.583,208.536l1.29-1.28a.406.406,0,0,0,.147-.323.361.361,0,0,0-.141-.286.418.418,0,0,0-.577.007l-1.3,1.29-1.351-1.3a.432.432,0,0,0-.584.013.439.439,0,0,0-.123.31.367.367,0,0,0,.135.281l1.349,1.3-1.372,1.44a.434.434,0,0,0-.123.309.353.353,0,0,0,.133.279.437.437,0,0,0,.288.121.4.4,0,0,0,.3-.135l1.352-1.43,1.292,1.455a.443.443,0,0,0,.289.12.386.386,0,0,0,.3-.13.44.44,0,0,0,.123-.312.349.349,0,0,0-.124-.268Z" transform="translate(-45.054 -203.609)" fill="#fff" stroke="#fff" stroke-miterlimit="10" stroke-width="0.25"/>
          <path id="Path_38-2" data-name="Path 38" d="M55.442,207.486a4.865,4.865,0,0,0-1.018-1.595,4.638,4.638,0,0,0-1.571-1.053,5.5,5.5,0,0,0-4.009,0,4.634,4.634,0,0,0-1.571,1.055,4.8,4.8,0,0,0-1.017,1.593,5.387,5.387,0,0,0-.365,2.007,5.459,5.459,0,0,0,.364,2.011,4.832,4.832,0,0,0,1.019,1.6,4.607,4.607,0,0,0,1.571,1.049,5.579,5.579,0,0,0,4.007,0,4.617,4.617,0,0,0,1.571-1.051,4.809,4.809,0,0,0,1.018-1.6,5.472,5.472,0,0,0,.364-2.012A5.415,5.415,0,0,0,55.442,207.486Zm-1.079,2.007a4.218,4.218,0,0,1-.248,1.459,3.453,3.453,0,0,1-.7,1.159,3.287,3.287,0,0,1-1.1.768,3.976,3.976,0,0,1-2.927,0,3.273,3.273,0,0,1-1.1-.768,3.433,3.433,0,0,1-.7-1.159,4.42,4.42,0,0,1,0-2.92,3.447,3.447,0,0,1,.7-1.159,3.243,3.243,0,0,1,1.1-.767,3.957,3.957,0,0,1,2.927,0,3.271,3.271,0,0,1,1.1.767,3.467,3.467,0,0,1,.7,1.159A4.22,4.22,0,0,1,54.363,209.493Z" transform="translate(-45.891 -204.46)" fill="#fff" stroke="#fff" stroke-miterlimit="10" stroke-width="0.25"/>
        </g>
      </g>
    </g>
  </g>
</svg>
