<svg xmlns="http://www.w3.org/2000/svg" width="67" height="67" viewBox="0 0 67 67">
  <g id="Group_30" data-name="Group 30" transform="translate(-272 -1877)">
    <rect id="Rectangle_32" data-name="Rectangle 32" width="67" height="67" transform="translate(272 1877)" fill="#fcf0c9"/>
    <g id="Group_17" data-name="Group 17" transform="translate(283.475 1885.345)">
      <path id="Path_27" data-name="Path 27" d="M10.679,40.509H3.586A3.569,3.569,0,0,1,.021,36.943V15.566A3.57,3.57,0,0,1,3.586,12h7.093a3.572,3.572,0,0,1,3.566,3.566V36.943A3.571,3.571,0,0,1,10.679,40.509ZM3.586,14.851a.716.716,0,0,0-.714.716V36.943a.717.717,0,0,0,.714.716h7.093a.717.717,0,0,0,.716-.716V15.566a.716.716,0,0,0-.716-.716Z" transform="translate(0 5.105)"/>
      <path id="Path_28" data-name="Path 28" d="M34.688,45.614H17.411a5.73,5.73,0,0,1-2.547-.6l-4.8-2.4a1.426,1.426,0,0,1,1.276-2.55l4.8,2.4a2.856,2.856,0,0,0,1.271.3H34.688a1.46,1.46,0,0,0,1.264-.734l1.609-2.817a23.379,23.379,0,0,0,3.075-11.579V22.81a2.857,2.857,0,0,0-2.854-2.854H27.053a2.844,2.844,0,0,1-2.641-3.9,27.424,27.424,0,0,0,1.97-10.232V4.171a1.322,1.322,0,0,0-1.32-1.32h-.887a1.325,1.325,0,0,0-1.269.956l-.559,1.954a32.538,32.538,0,0,1-5.9,11.434A7.315,7.315,0,0,1,10.7,19.956H6.425a1.425,1.425,0,0,1,0-2.851H10.7a4.484,4.484,0,0,0,3.518-1.692A29.7,29.7,0,0,0,19.607,4.978l.559-1.954A4.19,4.19,0,0,1,24.175,0h.887a4.174,4.174,0,0,1,4.171,4.171V5.823a30.286,30.286,0,0,1-2.174,11.291l10.724-.009a5.711,5.711,0,0,1,5.7,5.7v4.824a26.229,26.229,0,0,1-3.451,12.994l-1.609,2.817A4.317,4.317,0,0,1,34.688,45.614Z" transform="translate(2.118)"/>
      <circle id="Ellipse_1" data-name="Ellipse 1" cx="1.425" cy="1.425" r="1.425" transform="translate(5.693 37.062)"/>
    </g>
  </g>
</svg>
