<svg xmlns="http://www.w3.org/2000/svg" width="67" height="67" viewBox="0 0 67 67">
  <g id="Group_31" data-name="Group 31" transform="translate(-712 -1877)">
    <rect id="Rectangle_34" data-name="Rectangle 34" width="67" height="67" transform="translate(712 1877)" fill="#fcf0c9"/>
    <path id="Path_36" data-name="Path 36" d="M49.831,45.958,31.046,27.443a16.43,16.43,0,0,0,3.563-10.256A16.869,16.869,0,1,0,17.766,33.921a16.485,16.485,0,0,0,9.77-3.131L46.43,49.413a2.332,2.332,0,0,0,1.674.7,2.362,2.362,0,0,0,1.727-.7A2.512,2.512,0,0,0,49.831,45.958ZM5.189,17.187A12.487,12.487,0,0,1,17.766,4.771,12.488,12.488,0,0,1,30.344,17.187a12.578,12.578,0,0,1-25.155,0Zm21,.27A1.913,1.913,0,0,1,24.3,19.346H19.764v4.318a1.889,1.889,0,1,1-3.779,0V19.346h-4.8a1.889,1.889,0,1,1,0-3.779h4.8V10.655a1.889,1.889,0,1,1,3.779,0v4.913H24.3A1.878,1.878,0,0,1,26.187,17.457Z" transform="translate(721.129 1884.547)" stroke="#fcf0c9" stroke-width="1"/>
  </g>
</svg>
