<svg xmlns="http://www.w3.org/2000/svg" width="17" height="28.759" viewBox="0 0 17 28.759">
  <path id="Path_22" data-name="Path 22" d="M15.64,0a2.564,2.564,0,0,0-2.556,2.556V26.2a2.564,2.564,0,0,0,2.556,2.556H27.528A2.564,2.564,0,0,0,30.084,26.2V2.556A2.564,2.564,0,0,0,27.528,0Zm4.519,2.462h2.85c.187,0,.339.215.339.479s-.152.479-.339.479h-2.85c-.187,0-.339-.215-.339-.479S19.972,2.462,20.159,2.462ZM14.488,5.88H28.68v17H14.488Zm7.1,18.357h0a1.583,1.583,0,0,1,1.583,1.583h0A1.583,1.583,0,0,1,21.584,27.4h0A1.583,1.583,0,0,1,20,25.82h0a1.583,1.583,0,0,1,1.583-1.583Z" transform="translate(-13.084)"/>
</svg>
