<svg xmlns="http://www.w3.org/2000/svg" width="50" height="64" viewBox="0 0 50 64">
  <g id="Group_33" data-name="Group 33" transform="translate(-149 -1585)">
    <rect id="Rectangle_35" data-name="Rectangle 35" width="50" height="64" transform="translate(149 1585)" fill="#fff"/>
    <g id="Component_1_37" data-name="Component 1 – 37" transform="translate(161.681 1629.804) rotate(-90)">
      <g id="Group_8" data-name="Group 8" transform="translate(0 0)">
        <path id="Path_19" data-name="Path 19" d="M66.426,83.363l4.164-4.092a1.267,1.267,0,0,0,.478-1.031,1.169,1.169,0,0,0-.456-.914,1.358,1.358,0,0,0-1.863.027l-4.2,4.119L60.18,77.308a1.406,1.406,0,0,0-1.886.045,1.357,1.357,0,0,0-.4.986,1.168,1.168,0,0,0,.437.9L62.69,83.39l-4.428,4.592a1.394,1.394,0,0,0-.4.99,1.119,1.119,0,0,0,.428.887,1.418,1.418,0,0,0,.929.387,1.29,1.29,0,0,0,.979-.432l4.369-4.561L68.745,89.9a1.42,1.42,0,0,0,.934.387,1.249,1.249,0,0,0,.961-.419,1.393,1.393,0,0,0,.392-.995,1.107,1.107,0,0,0-.4-.855Z" transform="translate(-52.037 -71.13)" fill="#1a1818" stroke="#1a1818" stroke-miterlimit="10" stroke-width="0.25"/>
        <path id="Path_20" data-name="Path 20" d="M79.9,82.434a12.077,12.077,0,0,0-2.564-3.974,11.843,11.843,0,0,0-3.961-2.625,14.057,14.057,0,0,0-10.112,0,11.783,11.783,0,0,0-3.957,2.628,11.985,11.985,0,0,0-2.564,3.971,13.3,13.3,0,0,0-.921,5,13.479,13.479,0,0,0,.917,5.014,12.035,12.035,0,0,0,2.567,3.988,11.633,11.633,0,0,0,3.965,2.618,14.265,14.265,0,0,0,10.1,0,11.591,11.591,0,0,0,3.965-2.621A11.98,11.98,0,0,0,79.9,92.452a13.441,13.441,0,0,0,.921-5.018A13.3,13.3,0,0,0,79.9,82.434Zm-2.717,5a10.467,10.467,0,0,1-.626,3.637,8.5,8.5,0,0,1-1.771,2.888,8.224,8.224,0,0,1-2.773,1.915,10.147,10.147,0,0,1-7.385,0,8.19,8.19,0,0,1-2.773-1.915,8.5,8.5,0,0,1-1.771-2.888,10.88,10.88,0,0,1,0-7.274,8.553,8.553,0,0,1,1.771-2.892A8.144,8.144,0,0,1,64.631,79a10.053,10.053,0,0,1,7.385,0,8.143,8.143,0,0,1,2.773,1.908A8.553,8.553,0,0,1,76.561,83.8,10.468,10.468,0,0,1,77.187,87.434Z" transform="translate(-55.824 -74.894)" fill="#1a1818" stroke="#1a1818" stroke-miterlimit="10" stroke-width="0.25"/>
      </g>
    </g>
  </g>
</svg>
