<svg xmlns="http://www.w3.org/2000/svg" width="18.281" height="18.457" viewBox="0 0 18.281 18.457">
  <g id="Component_1_33" data-name="Component 1 – 33" transform="translate(0.125 0.194)">
    <g id="Group_8" data-name="Group 8" transform="translate(0 0)">
      <path id="Path_19" data-name="Path 19" d="M62.685,80.578l2.344-2.31a.716.716,0,0,0,.269-.582.661.661,0,0,0-.256-.516.763.763,0,0,0-1.049.015L61.626,79.51l-2.457-2.35a.79.79,0,0,0-1.062.025.767.767,0,0,0-.223.556.66.66,0,0,0,.246.508l2.452,2.343-2.493,2.592a.788.788,0,0,0-.223.559.632.632,0,0,0,.241.5.8.8,0,0,0,.523.219.725.725,0,0,0,.551-.244l2.459-2.574,2.349,2.62a.8.8,0,0,0,.526.219.7.7,0,0,0,.541-.236.787.787,0,0,0,.221-.562.626.626,0,0,0-.223-.483Z" transform="translate(-52.629 -71.698)" fill="#1a1818" stroke="#1a1818" stroke-miterlimit="10" stroke-width="0.25"/>
      <path id="Path_20" data-name="Path 20" d="M73.191,80.346a8.735,8.735,0,0,0-1.849-2.874,8.54,8.54,0,0,0-2.857-1.9,10.114,10.114,0,0,0-7.293,0,8.5,8.5,0,0,0-2.854,1.9,8.669,8.669,0,0,0-1.849,2.871,9.637,9.637,0,0,0-.664,3.616,9.769,9.769,0,0,0,.662,3.626,8.705,8.705,0,0,0,1.852,2.884A8.389,8.389,0,0,0,61.2,92.365a10.264,10.264,0,0,0,7.286,0,8.358,8.358,0,0,0,2.859-1.9,8.666,8.666,0,0,0,1.849-2.879,9.741,9.741,0,0,0,.664-3.628A9.637,9.637,0,0,0,73.191,80.346Zm-1.959,3.616a7.587,7.587,0,0,1-.451,2.63A6.152,6.152,0,0,1,69.5,88.68a5.932,5.932,0,0,1-2,1.385,7.3,7.3,0,0,1-5.326,0,5.906,5.906,0,0,1-2-1.385A6.152,6.152,0,0,1,58.9,86.592a7.887,7.887,0,0,1,0-5.26,6.188,6.188,0,0,1,1.277-2.091,5.873,5.873,0,0,1,2-1.38,7.233,7.233,0,0,1,5.326,0,5.873,5.873,0,0,1,2,1.38,6.187,6.187,0,0,1,1.277,2.091A7.587,7.587,0,0,1,71.232,83.962Z" transform="translate(-55.824 -74.894)" fill="#1a1818" stroke="#1a1818" stroke-miterlimit="10" stroke-width="0.25"/>
    </g>
  </g>
</svg>
